<svg width="428" height="313" viewBox="0 0 428 313" fill="none" xmlns="http://www.w3.org/2000/svg">
<path fill-rule="evenodd" clip-rule="evenodd" d="M428.126 174.055L396.126 174.026L396.095 208.026L364.095 207.997L364.158 138.997L332.158 138.967L332.19 103.967L300.19 103.938L300.063 242.938L268.063 242.909L268.221 69.9087L236.221 69.8794L236.253 34.8794L204.253 34.8501L204.032 276.85L172.032 276.821L172.19 103.821L140.19 103.791L140.221 69.7914L108.221 69.7621L108.158 138.762L76.1581 138.733L76.0949 207.733L44.0949 207.703L43.9997 311.703L11.9997 311.674L12.2846 0.674222L-19.7154 0.644907L-19.7466 34.6449L-51.7465 34.6156L-51.8418 138.616L-83.8418 138.586L-83.7154 0.586279L-115.715 0.556965L-115.968 276.557L-147.968 276.528L-147.779 69.5276L-179.779 69.4983L-211.779 69.469L-211.968 276.469L-243.968 276.44L-244 311.44L-276 311.41L-275.937 242.41L-307.937 242.381L-339.937 242.352L-339.842 138.352L-371.842 138.322L-371.905 207.322L-403.905 207.293L-403.842 138.293L-435.842 138.264L-435.968 276.264L-467.968 276.234L-467.905 207.234L-499.905 207.205L-499.874 173.205L-531.874 173.176L-531.968 276.176L-563.968 276.146L-563.778 69.1465L-595.778 69.1172L-595.842 138.117L-627.842 138.088L-627.746 34.0879L-659.746 34.0586L-659.968 276.059L-691.968 276.029L-691.874 173.029L-723.874 173L-724 311L-692 311.029L-660 311.058L-628 311.088L-596 311.117L-564 311.146L-532 311.176L-500 311.205L-468 311.234L-436 311.264L-404 311.293L-372 311.322L-340 311.352L-308 311.381L-276 311.41L-244 311.44L-212 311.469L-180 311.498L-148 311.528L-116 311.557L-84.0003 311.586L-52.0003 311.615L-20.0003 311.645L11.9997 311.674L43.9997 311.703L75.9997 311.733L108 311.762L140 311.791L172 311.821L204 311.85L236 311.879L268 311.909L300 311.938L332 311.967L364 311.997L396 312.026L428 312.055L428.126 174.055Z" fill="#242424"/>
</svg>
