<svg width="1280" height="313" viewBox="0 0 1147 313" fill="none" xmlns="http://www.w3.org/2000/svg">
<path fill-rule="evenodd" clip-rule="evenodd" d="M1152.13 174.055V174.055L1120.13 174.026L1120.09 208.026L1088.09 207.997L1088.16 138.997L1056.16 138.967L1056.19 103.967L1024.19 103.938L1024.06 242.938L992.063 242.909L992.221 69.9087L960.221 69.8794L960.253 34.8794L928.253 34.8501L928.032 276.85L896.032 276.821L896.19 103.821L864.19 103.791L864.221 69.7914L832.221 69.7621L832.158 138.762L800.158 138.733L800.095 207.733L768.095 207.703L768 311.703L736 311.674L736.285 0.674222L704.285 0.644907L704.253 34.6449L672.253 34.6156L672.158 138.616L640.158 138.586L640.285 0.586279L608.285 0.556965L608.032 276.557L576.032 276.528L576.221 69.5276L544.221 69.4983V69.4983L512.221 69.469L512.032 276.469L480.032 276.44L480 311.44L448 311.41L448.063 242.41L416.063 242.381V242.381L384.063 242.352L384.158 138.352L352.158 138.322L352.095 207.322L320.095 207.293L320.158 138.293L288.158 138.264L288.032 276.264L256.032 276.234L256.095 207.234L224.095 207.205L224.126 173.205L192.126 173.176L192.032 276.176L160.032 276.146L160.222 69.1465L128.222 69.1172L128.158 138.117L96.1584 138.088L96.2537 34.0879L64.2537 34.0586L64.032 276.059L32.032 276.029L32.1264 173.029L0.12641 173L-7.62939e-06 311L32 311.029V311.029L64 311.058V311.058L96 311.088V311.088L128 311.117V311.117L160 311.146V311.146L192 311.176V311.176L224 311.205V311.205L256 311.234V311.234L288 311.264V311.264L320 311.293V311.293L352 311.322V311.322L384 311.352V311.352L416 311.381V311.381L448 311.41V311.41L480 311.44V311.44L512 311.469V311.469L544 311.498V311.498L576 311.528V311.528L608 311.557V311.557L640 311.586V311.586L672 311.615V311.615L704 311.645V311.645L736 311.674V311.674L768 311.703V311.703L800 311.733V311.733L832 311.762V311.762L864 311.791V311.791L896 311.821V311.821L928 311.85V311.85L960 311.879V311.879L992 311.909V311.909L1024 311.938V311.938L1056 311.967V311.967L1088 311.997V311.997L1120 312.026V312.026L1152 312.055V312.055L1152.13 174.055Z" fill="#242424"/>
</svg>
